<svg xmlns="http://www.w3.org/2000/svg" viewBox="0 0 64 64" role="img" aria-label="Tabbie">
  <rect width="64" height="64" rx="14" fill="#5F8F8C"/>

  <!-- Soft ears -->
  <ellipse cx="20" cy="18.5" rx="7.2" ry="8.5" fill="#C5D9C3" stroke="#2F3F45" stroke-width="2"/>
  <ellipse cx="44" cy="18.5" rx="7.2" ry="8.5" fill="#C5D9C3" stroke="#2F3F45" stroke-width="2"/>

  <!-- Browser tab body -->
  <path
    fill="#F7F4ED"
    stroke="#2F3F45"
    stroke-width="2"
    stroke-linejoin="round"
    d="
      M14 29
      c0-2.6 2.1-4.7 4.7-4.7
      h9.5
      c0.9 0 1.7-0.35 2.3-0.95
      l1.35-1.35
      c0.6-0.6 1.4-0.95 2.3-0.95
      H45.3
      c2.6 0 4.7 2.1 4.7 4.7
      V45.3
      c0 2.6-2.1 4.7-4.7 4.7
      H18.7
      c-2.6 0-4.7-2.1-4.7-4.7
      Z
    "
  />

  <!-- Traffic-light dots on the tab -->
  <circle cx="19.5" cy="26.2" r="1.55" fill="#2F3F45"/>
  <circle cx="24" cy="26.2" r="1.55" fill="#2F3F45"/>
  <circle cx="28.5" cy="26.2" r="1.55" fill="#2F3F45"/>

  <!-- Face -->
  <circle cx="27" cy="36.5" r="2.35" fill="#2F3F45"/>
  <circle cx="37" cy="36.5" r="2.35" fill="#2F3F45"/>
  <path
    d="M28 42.2c1.6 1.8 6.4 1.8 8 0"
    fill="none"
    stroke="#2F3F45"
    stroke-width="2"
    stroke-linecap="round"
  />
</svg>
